<?xml version="1.0" encoding="iso-8859-1"?>
<!-- Generator: Adobe Illustrator 23.0.4, SVG Export Plug-In . SVG Version: 6.00 Build 0)  -->
<svg version="1.1" xmlns="http://www.w3.org/2000/svg" xmlns:xlink="http://www.w3.org/1999/xlink" x="0px" y="0px"
	 viewBox="0 0 64 64" style="enable-background:new 0 0 64 64;" xml:space="preserve">
<g id="time-02">
	<path style="fill:#4E2600;" d="M47.921,45.764c-0.616-0.616-1.606-0.61-2.216,0c-0.61,0.61-0.616,1.6,0,2.216
		c0.613,0.613,1.603,0.608,2.216-0.003C48.532,47.367,48.534,46.377,47.921,45.764z M18.3,16.143c-0.613-0.613-1.603-0.61-2.213,0
		c-0.613,0.613-0.616,1.603-0.003,2.216c0.616,0.616,1.606,0.61,2.216,0C18.91,17.748,18.915,16.758,18.3,16.143z M47.919,16.143
		c-0.61-0.61-1.6-0.616-2.213,0c-0.616,0.613-0.61,1.606,0,2.216c0.61,0.61,1.6,0.613,2.216,0
		C48.534,17.743,48.532,16.756,47.919,16.143z M18.3,45.764c-0.61-0.61-1.6-0.616-2.216,0c-0.613,0.613-0.61,1.603,0,2.213
		c0.613,0.61,1.603,0.615,2.216,0.003C18.915,47.365,18.91,46.375,18.3,45.764z M32.001,9.55c-0.862,0-1.566,0.697-1.566,1.566
		c0,0.867,0.705,1.566,1.566,1.566c0.864,0,1.569-0.699,1.569-1.566C33.57,10.247,32.866,9.55,32.001,9.55z M11.057,30.494
		c-0.867,0-1.566,0.705-1.566,1.566c0,0.864,0.699,1.569,1.566,1.569c0.87,0,1.566-0.705,1.566-1.569
		C12.624,31.198,11.927,30.494,11.057,30.494z M32.001,51.44c-0.862,0-1.566,0.697-1.566,1.566c0,0.867,0.705,1.564,1.566,1.564
		c0.864,0,1.569-0.697,1.569-1.564C33.57,52.137,32.866,51.44,32.001,51.44z M52.948,30.494c-0.87,0-1.566,0.705-1.566,1.566
		c0,0.864,0.697,1.569,1.566,1.569s1.566-0.705,1.566-1.569C54.514,31.198,53.817,30.494,52.948,30.494z M35.967,30.79
		c-0.393-1.299-1.412-2.318-2.716-2.708V15.092h-2.326v12.989c-1.674,0.503-2.907,2.038-2.907,3.874c0,2.242,1.826,4.068,4.07,4.068
		c1.836,0,3.374-1.231,3.879-2.905h7.664V30.79H35.967z M32.088,33.697c-0.961,0-1.742-0.783-1.742-1.742s0.781-1.737,1.742-1.737
		c0.961,0,1.742,0.778,1.742,1.737S33.049,33.697,32.088,33.697z M52.948,30.494c-0.87,0-1.566,0.705-1.566,1.566
		c0,0.864,0.697,1.569,1.566,1.569s1.566-0.705,1.566-1.569C54.514,31.198,53.817,30.494,52.948,30.494z M47.921,18.359
		c0.613-0.616,0.61-1.603-0.003-2.216c-0.61-0.61-1.6-0.616-2.213,0c-0.616,0.613-0.61,1.606,0,2.216
		C46.316,18.969,47.306,18.972,47.921,18.359z M45.705,45.764c-0.61,0.61-0.616,1.6,0,2.216c0.613,0.613,1.603,0.608,2.216-0.003
		c0.61-0.61,0.613-1.6,0-2.213C47.306,45.149,46.316,45.154,45.705,45.764z M33.251,28.082V15.092h-2.326v12.989
		c-1.674,0.503-2.907,2.038-2.907,3.874c0,2.242,1.826,4.068,4.07,4.068c1.836,0,3.374-1.231,3.879-2.905h7.664V30.79h-7.664
		C35.574,29.491,34.555,28.472,33.251,28.082z M32.088,33.697c-0.961,0-1.742-0.783-1.742-1.742s0.781-1.737,1.742-1.737
		c0.961,0,1.742,0.778,1.742,1.737S33.049,33.697,32.088,33.697z M32.001,12.683c0.864,0,1.569-0.699,1.569-1.566
		c0-0.87-0.705-1.566-1.569-1.566c-0.862,0-1.566,0.697-1.566,1.566C30.435,11.983,31.14,12.683,32.001,12.683z M32.001,51.44
		c-0.862,0-1.566,0.697-1.566,1.566c0,0.867,0.705,1.564,1.566,1.564c0.864,0,1.569-0.697,1.569-1.564
		C33.57,52.137,32.866,51.44,32.001,51.44z M16.086,16.143c-0.613,0.613-0.616,1.603-0.003,2.216c0.616,0.616,1.606,0.61,2.216,0
		c0.61-0.61,0.616-1.6,0-2.216C17.687,15.53,16.697,15.532,16.086,16.143z M16.084,45.764c-0.613,0.613-0.61,1.603,0,2.213
		c0.613,0.61,1.603,0.615,2.216,0.003c0.616-0.616,0.61-1.606,0-2.216C17.689,45.154,16.699,45.149,16.084,45.764z M11.057,30.494
		c-0.867,0-1.566,0.705-1.566,1.566c0,0.864,0.699,1.569,1.566,1.569c0.87,0,1.566-0.705,1.566-1.569
		C12.624,31.198,11.927,30.494,11.057,30.494z M52.948,30.494c-0.87,0-1.566,0.705-1.566,1.566c0,0.864,0.697,1.569,1.566,1.569
		s1.566-0.705,1.566-1.569C54.514,31.198,53.817,30.494,52.948,30.494z M32.001,5.055c-14.854,0-26.937,12.085-26.937,26.942
		c0,14.854,12.083,26.939,26.937,26.939c14.857,0,26.942-12.085,26.942-26.939C58.943,17.141,46.858,5.055,32.001,5.055z
		 M32.001,56.608c-13.571,0-24.611-11.04-24.611-24.611c0-13.573,11.04-24.614,24.611-24.614c13.573,0,24.616,11.04,24.616,24.614
		C56.618,45.568,45.575,56.608,32.001,56.608z M47.921,18.359c0.613-0.616,0.61-1.603-0.003-2.216c-0.61-0.61-1.6-0.616-2.213,0
		c-0.616,0.613-0.61,1.606,0,2.216C46.316,18.969,47.306,18.972,47.921,18.359z M45.705,45.764c-0.61,0.61-0.616,1.6,0,2.216
		c0.613,0.613,1.603,0.608,2.216-0.003c0.61-0.61,0.613-1.6,0-2.213C47.306,45.149,46.316,45.154,45.705,45.764z M33.251,28.082
		V15.092h-2.326v12.989c-1.674,0.503-2.907,2.038-2.907,3.874c0,2.242,1.826,4.068,4.07,4.068c1.836,0,3.374-1.231,3.879-2.905
		h7.664V30.79h-7.664C35.574,29.491,34.555,28.472,33.251,28.082z M32.088,33.697c-0.961,0-1.742-0.783-1.742-1.742
		s0.781-1.737,1.742-1.737c0.961,0,1.742,0.778,1.742,1.737S33.049,33.697,32.088,33.697z M32.001,12.683
		c0.864,0,1.569-0.699,1.569-1.566c0-0.87-0.705-1.566-1.569-1.566c-0.862,0-1.566,0.697-1.566,1.566
		C30.435,11.983,31.14,12.683,32.001,12.683z M32.001,51.44c-0.862,0-1.566,0.697-1.566,1.566c0,0.867,0.705,1.564,1.566,1.564
		c0.864,0,1.569-0.697,1.569-1.564C33.57,52.137,32.866,51.44,32.001,51.44z M16.086,16.143c-0.613,0.613-0.616,1.603-0.003,2.216
		c0.616,0.616,1.606,0.61,2.216,0c0.61-0.61,0.616-1.6,0-2.216C17.687,15.53,16.697,15.532,16.086,16.143z M16.084,45.764
		c-0.613,0.613-0.61,1.603,0,2.213c0.613,0.61,1.603,0.615,2.216,0.003c0.616-0.616,0.61-1.606,0-2.216
		C17.689,45.154,16.699,45.149,16.084,45.764z M11.057,30.494c-0.867,0-1.566,0.705-1.566,1.566c0,0.864,0.699,1.569,1.566,1.569
		c0.87,0,1.566-0.705,1.566-1.569C12.624,31.198,11.927,30.494,11.057,30.494z M52.948,30.494c-0.87,0-1.566,0.705-1.566,1.566
		c0,0.864,0.697,1.569,1.566,1.569s1.566-0.705,1.566-1.569C54.514,31.198,53.817,30.494,52.948,30.494z M32.001,5.055
		c-14.854,0-26.937,12.085-26.937,26.942c0,14.854,12.083,26.939,26.937,26.939c14.857,0,26.942-12.085,26.942-26.939
		C58.943,17.141,46.858,5.055,32.001,5.055z M32.001,56.608c-13.571,0-24.611-11.04-24.611-24.611
		c0-13.573,11.04-24.614,24.611-24.614c13.573,0,24.616,11.04,24.616,24.614C56.618,45.568,45.575,56.608,32.001,56.608z
		 M47.921,18.359c0.613-0.616,0.61-1.603-0.003-2.216c-0.61-0.61-1.6-0.616-2.213,0c-0.616,0.613-0.61,1.606,0,2.216
		C46.316,18.969,47.306,18.972,47.921,18.359z M45.705,45.764c-0.61,0.61-0.616,1.6,0,2.216c0.613,0.613,1.603,0.608,2.216-0.003
		c0.61-0.61,0.613-1.6,0-2.213C47.306,45.149,46.316,45.154,45.705,45.764z M33.251,28.082V15.092h-2.326v12.989
		c-1.674,0.503-2.907,2.038-2.907,3.874c0,2.242,1.826,4.068,4.07,4.068c1.836,0,3.374-1.231,3.879-2.905h7.664V30.79h-7.664
		C35.574,29.491,34.555,28.472,33.251,28.082z M32.088,33.697c-0.961,0-1.742-0.783-1.742-1.742s0.781-1.737,1.742-1.737
		c0.961,0,1.742,0.778,1.742,1.737S33.049,33.697,32.088,33.697z M32.001,12.683c0.864,0,1.569-0.699,1.569-1.566
		c0-0.87-0.705-1.566-1.569-1.566c-0.862,0-1.566,0.697-1.566,1.566C30.435,11.983,31.14,12.683,32.001,12.683z M32.001,51.44
		c-0.862,0-1.566,0.697-1.566,1.566c0,0.867,0.705,1.564,1.566,1.564c0.864,0,1.569-0.697,1.569-1.564
		C33.57,52.137,32.866,51.44,32.001,51.44z M16.086,16.143c-0.613,0.613-0.616,1.603-0.003,2.216c0.616,0.616,1.606,0.61,2.216,0
		c0.61-0.61,0.616-1.6,0-2.216C17.687,15.53,16.697,15.532,16.086,16.143z M16.084,45.764c-0.613,0.613-0.61,1.603,0,2.213
		c0.613,0.61,1.603,0.615,2.216,0.003c0.616-0.616,0.61-1.606,0-2.216C17.689,45.154,16.699,45.149,16.084,45.764z M11.057,30.494
		c-0.867,0-1.566,0.705-1.566,1.566c0,0.864,0.699,1.569,1.566,1.569c0.87,0,1.566-0.705,1.566-1.569
		C12.624,31.198,11.927,30.494,11.057,30.494z M32.001,0c-17.644,0-32,14.354-32,31.997c0,17.646,14.356,32.003,32,32.003
		s31.997-14.356,31.997-32.003C63.999,14.354,49.645,0,32.001,0z M32.001,61.671c-16.36,0-29.671-13.311-29.671-29.674
		c0-16.36,13.311-29.669,29.671-29.669s29.671,13.309,29.671,29.669C61.673,48.36,48.361,61.671,32.001,61.671z M52.948,30.494
		c-0.87,0-1.566,0.705-1.566,1.566c0,0.864,0.697,1.569,1.566,1.569s1.566-0.705,1.566-1.569
		C54.514,31.198,53.817,30.494,52.948,30.494z M32.001,5.055c-14.854,0-26.937,12.085-26.937,26.942
		c0,14.854,12.083,26.939,26.937,26.939c14.857,0,26.942-12.085,26.942-26.939C58.943,17.141,46.858,5.055,32.001,5.055z
		 M32.001,56.608c-13.571,0-24.611-11.04-24.611-24.611c0-13.573,11.04-24.614,24.611-24.614c13.573,0,24.616,11.04,24.616,24.614
		C56.618,45.568,45.575,56.608,32.001,56.608z M47.921,18.359c0.613-0.616,0.61-1.603-0.003-2.216c-0.61-0.61-1.6-0.616-2.213,0
		c-0.616,0.613-0.61,1.606,0,2.216C46.316,18.969,47.306,18.972,47.921,18.359z M45.705,45.764c-0.61,0.61-0.616,1.6,0,2.216
		c0.613,0.613,1.603,0.608,2.216-0.003c0.61-0.61,0.613-1.6,0-2.213C47.306,45.149,46.316,45.154,45.705,45.764z M33.251,28.082
		V15.092h-2.326v12.989c-1.674,0.503-2.907,2.038-2.907,3.874c0,2.242,1.826,4.068,4.07,4.068c1.836,0,3.374-1.231,3.879-2.905
		h7.664V30.79h-7.664C35.574,29.491,34.555,28.472,33.251,28.082z M32.088,33.697c-0.961,0-1.742-0.783-1.742-1.742
		s0.781-1.737,1.742-1.737c0.961,0,1.742,0.778,1.742,1.737S33.049,33.697,32.088,33.697z M32.001,12.683
		c0.864,0,1.569-0.699,1.569-1.566c0-0.87-0.705-1.566-1.569-1.566c-0.862,0-1.566,0.697-1.566,1.566
		C30.435,11.983,31.14,12.683,32.001,12.683z M32.001,51.44c-0.862,0-1.566,0.697-1.566,1.566c0,0.867,0.705,1.564,1.566,1.564
		c0.864,0,1.569-0.697,1.569-1.564C33.57,52.137,32.866,51.44,32.001,51.44z M16.086,16.143c-0.613,0.613-0.616,1.603-0.003,2.216
		c0.616,0.616,1.606,0.61,2.216,0c0.61-0.61,0.616-1.6,0-2.216C17.687,15.53,16.697,15.532,16.086,16.143z M16.084,45.764
		c-0.613,0.613-0.61,1.603,0,2.213c0.613,0.61,1.603,0.615,2.216,0.003c0.616-0.616,0.61-1.606,0-2.216
		C17.689,45.154,16.699,45.149,16.084,45.764z M11.057,30.494c-0.867,0-1.566,0.705-1.566,1.566c0,0.864,0.699,1.569,1.566,1.569
		c0.87,0,1.566-0.705,1.566-1.569C12.624,31.198,11.927,30.494,11.057,30.494z"/>
	<path style="fill:#FDD300;" d="M32.001,7.384c-13.571,0-24.611,11.04-24.611,24.614c0,13.571,11.04,24.611,24.611,24.611
		c13.573,0,24.616-11.04,24.616-24.611C56.618,18.424,45.575,7.384,32.001,7.384z M11.057,33.629c-0.867,0-1.566-0.705-1.566-1.569
		c0-0.862,0.699-1.566,1.566-1.566c0.87,0,1.566,0.705,1.566,1.566C12.624,32.925,11.927,33.629,11.057,33.629z M45.705,16.143
		c0.613-0.616,1.603-0.61,2.213,0c0.613,0.613,0.616,1.6,0.003,2.216c-0.616,0.613-1.606,0.61-2.216,0
		C45.095,17.748,45.09,16.756,45.705,16.143z M32.001,9.55c0.864,0,1.569,0.697,1.569,1.566c0,0.867-0.705,1.566-1.569,1.566
		c-0.862,0-1.566-0.699-1.566-1.566C30.435,10.247,31.14,9.55,32.001,9.55z M18.3,47.98c-0.613,0.613-1.603,0.608-2.216-0.003
		c-0.61-0.61-0.613-1.6,0-2.213c0.616-0.616,1.606-0.61,2.216,0C18.91,46.375,18.915,47.365,18.3,47.98z M18.3,18.359
		c-0.61,0.61-1.6,0.616-2.216,0c-0.613-0.613-0.61-1.603,0.003-2.216c0.61-0.61,1.6-0.613,2.213,0
		C18.915,16.758,18.91,17.748,18.3,18.359z M32.001,54.571c-0.862,0-1.566-0.697-1.566-1.564c0-0.87,0.705-1.566,1.566-1.566
		c0.864,0,1.569,0.697,1.569,1.566C33.57,53.874,32.866,54.571,32.001,54.571z M43.631,33.118h-7.664
		c-0.506,1.674-2.043,2.905-3.879,2.905c-2.245,0-4.07-1.826-4.07-4.068c0-1.836,1.234-3.371,2.907-3.874V15.092h2.326v12.989
		c1.304,0.39,2.323,1.409,2.716,2.708h7.664V33.118z M47.921,47.978c-0.613,0.61-1.603,0.615-2.216,0.003
		c-0.616-0.616-0.61-1.606,0-2.216c0.61-0.61,1.6-0.616,2.216,0C48.534,46.377,48.532,47.367,47.921,47.978z M52.948,33.629
		c-0.87,0-1.566-0.705-1.566-1.569c0-0.862,0.697-1.566,1.566-1.566s1.566,0.705,1.566,1.566
		C54.514,32.925,53.817,33.629,52.948,33.629z"/>
</g>
<g id="Layer_1">
</g>
</svg>
